<?xml version="1.0" encoding="iso-8859-1"?>
<!-- Generator: Adobe Illustrator 19.0.0, SVG Export Plug-In . SVG Version: 6.00 Build 0)  -->
<svg version="1.1" id="Layer_1" xmlns="http://www.w3.org/2000/svg" xmlns:xlink="http://www.w3.org/1999/xlink" x="0px" y="0px"
	 viewBox="0 0 512 512" style="enable-background:new 0 0 512 512;" xml:space="preserve">
<g>
	<g>
		<path d="M146.659,125.521v33.925H0v15.657h146.659v73.068H25.052v15.657h121.607v28.705H48.016v15.657h98.642v78.287H512V125.521
			H146.659z M496.343,370.822H162.316V148.295l167.01,115.661l123.14-85.169l-8.907-12.878l-114.227,79.006L179.543,141.178h316.799
			V370.822z"/>
	</g>
</g>
<g>
	<g>
		
			<rect x="461.617" y="149.621" transform="matrix(0.8214 -0.5703 0.5703 0.8214 -5.965 295.8487)" width="15.657" height="15.657"/>
	</g>
</g>
<g>
	<g>
		<rect y="336.897" width="15.658" height="15.658"/>
	</g>
</g>
<g>
	<g>
		<rect x="33.925" y="336.897" width="97.598" height="15.658"/>
	</g>
</g>
<g>
	<g>
		<rect y="203.808" width="15.658" height="15.658"/>
	</g>
</g>
<g>
	<g>
		<rect x="33.925" y="203.808" width="97.598" height="15.658"/>
	</g>
</g>
<g>
</g>
<g>
</g>
<g>
</g>
<g>
</g>
<g>
</g>
<g>
</g>
<g>
</g>
<g>
</g>
<g>
</g>
<g>
</g>
<g>
</g>
<g>
</g>
<g>
</g>
<g>
</g>
<g>
</g>
</svg>
